<svg width="148" height="165" fill="none" xmlns="http://www.w3.org/2000/svg">
  <path d="M99.163 157c-9.718 0-17.733-.935-24.047-2.804-6.264-1.918-11.172-4.575-14.724-7.969-3.502-3.394-5.968-7.378-7.399-11.953-1.43-4.575-2.145-9.543-2.145-14.905V82.993c0-5.51.69-10.6 2.072-15.274 1.43-4.722 3.896-8.83 7.398-12.322 3.552-3.493 8.46-6.198 14.724-8.117 6.314-1.967 14.354-2.951 24.12-2.951 9.471 0 17.141.91 23.011 2.73 5.919 1.82 10.433 4.378 13.54 7.674 3.157 3.296 5.303 7.157 6.437 11.584 1.184 4.427 1.776 9.248 1.776 14.462v1.697L122.321 84.1v-4.354c0-7.33-1.8-12.2-5.401-14.61s-9.52-3.615-17.757-3.615c-8.14 0-14.552 1.279-19.237 3.837-4.686 2.558-7.03 7.575-7.03 15.052v41.173c0 4.968 1.036 8.78 3.108 11.437 2.121 2.607 5.13 4.402 9.027 5.386 3.946.935 8.656 1.402 14.132 1.402 5.573 0 10.21-.467 13.91-1.402 3.699-.984 6.461-2.779 8.286-5.386 1.875-2.657 2.812-6.469 2.812-11.437v-7.969h-22.049V99.226H144v55.856h-11.616l-3.478-12.544c-.296.885-.912 2.115-1.85 3.689-.937 1.574-2.466 3.198-4.587 4.87-2.121 1.623-5.056 3.001-8.805 4.132-3.748 1.181-8.582 1.771-14.501 1.771Z" fill="#3FADA8"/>
  <path d="M38.779.746a5.678 5.678 0 0 0-4.072 1.825L5.504 34.238a5.643 5.643 0 0 0-1.006 6.149 5.654 5.654 0 0 0 2.137 2.457c.938.593 2.03.897 3.14.875l16.289-.294a5.64 5.64 0 0 1 1.242-2.149l16.689-18.094a5.663 5.663 0 0 1 3.946-1.878 5.678 5.678 0 0 1 4.112 1.483 5.651 5.651 0 0 1 1.827 3.962 5.635 5.635 0 0 1-1.546 4.08L40.96 43.171l11.954-.21a5.68 5.68 0 0 0 4.066-1.823L86.183 9.472a5.644 5.644 0 0 0 .996-6.138A5.654 5.654 0 0 0 85.05.88 5.677 5.677 0 0 0 81.916 0L38.78.752l-.002-.005ZM19.165 54.853l10.41-.188L39.1 75.802a50.933 50.933 0 0 0-5.829 1.534 5.68 5.68 0 0 1-3.78-.085 5.66 5.66 0 0 1-2.885-2.44 62.682 62.682 0 0 1-7.444-19.964l.003.006Zm47.612 23.106a51.252 51.252 0 0 0-15.687-3.114l-9.188-20.39 11.205-.19a17.034 17.034 0 0 0 6.67-1.487 16.992 16.992 0 0 0 5.545-3.988L88.3 23.87a62.231 62.231 0 0 1 10.026 18.807 5.635 5.635 0 0 1-.085 3.77 5.653 5.653 0 0 1-2.447 2.877 50.7 50.7 0 0 0-21.783 25.393 5.656 5.656 0 0 1-2.953 3.094 5.68 5.68 0 0 1-4.28.148ZM53.04 92.954a5.656 5.656 0 0 0 2.973-3.147 5.634 5.634 0 0 0-.128-4.322l-4.795-10.64a50.753 50.753 0 0 0-11.987.962l6.448 14.31a5.658 5.658 0 0 0 3.155 2.965 5.68 5.68 0 0 0 4.334-.128Z" fill="#4D4D4D"/>
</svg>